<?xml version="1.0" encoding="UTF-8" standalone="no"?>
<!-- Created with Inkscape (http://www.inkscape.org/) -->

<svg
   width="354.35458"
   height="522.07874"
   viewBox="0 0 354.35458 522.07872"
   version="1.1"
   id="svg5"
   inkscape:version="1.1.2 (b8e25be833, 2022-02-05)"
   sodipodi:docname="iconoUbicacion.svg"
   xmlns:inkscape="http://www.inkscape.org/namespaces/inkscape"
   xmlns:sodipodi="http://sodipodi.sourceforge.net/DTD/sodipodi-0.dtd"
   xmlns="http://www.w3.org/2000/svg"
   xmlns:svg="http://www.w3.org/2000/svg">
  <sodipodi:namedview
     id="namedview7"
     pagecolor="#505050"
     bordercolor="#ffffff"
     borderopacity="1"
     inkscape:pageshadow="0"
     inkscape:pageopacity="0"
     inkscape:pagecheckerboard="1"
     inkscape:document-units="px"
     showgrid="false"
     fit-margin-top="0"
     fit-margin-left="0"
     fit-margin-right="0"
     fit-margin-bottom="0"
     inkscape:zoom="0.540625"
     inkscape:cx="-37.919075"
     inkscape:cy="286.7052"
     inkscape:window-width="1366"
     inkscape:window-height="705"
     inkscape:window-x="-8"
     inkscape:window-y="-8"
     inkscape:window-maximized="1"
     inkscape:current-layer="layer1" />
  <defs
     id="defs2" />
  <g
     inkscape:label="Capa 1"
     inkscape:groupmode="layer"
     id="layer1"
     transform="translate(167.09047,143.27398)">
    <path
       style="fill:#ffffff;stroke-width:1.02128"
       d="m 4.0852011,377.17273 c -2.68399,-1.32224 -6.50551,-6.35445 -17.2387901,-22.70015 C -91.792939,234.7128 -143.97328,135.93311 -160.46378,75.607898 c -5.9652,-21.82179 -7.51991,-35.350335 -6.17743,-53.753831 2.43264,-33.347796 13.51783,-64.471075 32.50321,-91.257425 12.67571,-17.88408 34.00285,-37.549912 53.331201,-49.176902 27.89817,-16.78216 57.01933,-24.69372 90.89362,-24.69372 28.12044,0 48.54479,4.31986 73.02128,15.44441 20.710629,9.41296 36.246439,20.35104 53.106379,37.389852 30.16738,30.48745 47.4269,68.790281 50.60036,112.293785 1.34249,18.403496 -0.21222,31.932041 -6.17742,53.753831 C 164.14586,135.937 111.96756,234.71129 33.315361,354.49067 c -11.14763,16.97672 -14.49288,21.34714 -17.39314,22.7234 -4.49479,2.13293 -7.4444299,2.12262 -11.8370199,-0.0414 z M 25.906161,317.38615 C 91.702141,215.10212 138.86264,124.8001 154.04703,72.024453 161.65782,45.572041 162.62278,26.994785 157.65435,2.5776444 150.93141,-30.461981 129.59464,-64.694508 102.83145,-85.379698 83.552301,-100.2805 57.648461,-111.61764 34.040701,-115.48681 c -10.45844,-1.71408 -37.4493099,-1.71408 -47.90776,0 -23.60776,3.86917 -49.5116,15.20631 -68.79075,30.107112 -26.763191,20.68519 -48.099961,54.917717 -54.822901,87.9573424 -4.96843,24.4171406 -4.00347,42.9943966 3.60732,69.4468086 15.10884,52.513037 60.854391,140.308417 126.2608711,242.321317 8.18492,12.76583 15.39641,24.01485 16.02554,24.99783 0.62912,0.98298 1.38575,1.78724 1.6814099,1.78724 0.29566,0 7.41093,-10.68511 15.81173,-23.74469 z M -9.3174289,128.57583 C -46.841669,120.73611 -75.960979,92.678516 -85.497479,55.17339 c -1.54111,-6.060859 -1.92966,-11.070169 -1.8616,-24.000001 0.0774,-14.711091 0.36258,-17.250648 2.85978,-25.4689626 10.90249,-35.8802564 39.09123,-62.0698444 74.8353901,-69.5280544 10.44779,-2.17999 29.0536699,-2.17999 39.5014599,0 35.74416,7.45821 63.9329,33.647798 74.835389,69.5280544 2.4972,8.2183146 2.78236,10.7578716 2.85978,25.4689626 0.068,12.929832 -0.32049,17.939142 -1.8616,24.000001 -13.140409,51.67857 -63.894499,84.07722 -114.9885489,73.40244 z M 30.086691,101.31225 c 43.91922,-13.669015 64.18936,-61.889836 43.1298,-102.6018936 -5.05586,-9.7739134 -17.16821,-22.6016894 -26.55161,-28.1199024 -17.70379,-10.411272 -40.7630299,-12.630352 -60.40914,-5.813412 -10.39111,3.605576 -17.58124,8.27812 -26.73678,17.37507 -13.82783,13.7393264 -20.9215,30.706816 -20.9215,50.042554 0,35.646639 25.01686,64.795323 61.2766001,71.397124 5.5491,1.01031 24.1519099,-0.39327 30.2126299,-2.27954 z"
       id="path919" />
  </g>
</svg>
