<?xml version="1.0" encoding="UTF-8" standalone="no"?>
<!-- Created with Inkscape (http://www.inkscape.org/) -->

<svg
   width="147.33167"
   height="146.98691"
   viewBox="0 0 147.33167 146.98691"
   version="1.1"
   id="svg5"
   inkscape:version="1.1.2 (b8e25be833, 2022-02-05)"
   sodipodi:docname="iniciosesion.svg"
   xmlns:inkscape="http://www.inkscape.org/namespaces/inkscape"
   xmlns:sodipodi="http://sodipodi.sourceforge.net/DTD/sodipodi-0.dtd"
   xmlns="http://www.w3.org/2000/svg"
   xmlns:svg="http://www.w3.org/2000/svg">
  <sodipodi:namedview
     id="namedview7"
     pagecolor="#505050"
     bordercolor="#ffffff"
     borderopacity="1"
     inkscape:pageshadow="0"
     inkscape:pageopacity="0"
     inkscape:pagecheckerboard="1"
     inkscape:document-units="px"
     showgrid="false"
     fit-margin-top="0"
     fit-margin-left="0"
     fit-margin-right="0"
     fit-margin-bottom="0"
     inkscape:zoom="1.08125"
     inkscape:cx="40.231214"
     inkscape:cy="119.30636"
     inkscape:window-width="1366"
     inkscape:window-height="705"
     inkscape:window-x="-8"
     inkscape:window-y="-8"
     inkscape:window-maximized="1"
     inkscape:current-layer="layer1" />
  <defs
     id="defs2" />
  <g
     inkscape:label="Capa 1"
     inkscape:groupmode="layer"
     id="layer1"
     transform="translate(17.5614,9.7323835)">
    <path
       style="fill:#ffffff"
       d="M 42.746301,136.31 C 27.914906,133.46973 15.332436,126.7176 4.2857415,115.6709 -11.140269,100.24489 -18.770245,80.377774 -17.40559,59.190494 -15.358612,27.409654 7.2234985,0.1519739 38.260115,-8.0006561 c 8.790109,-2.3089699 27.209891,-2.3089699 36,0 25.61574,6.72869 45.904095,26.6716901 53.146905,52.2422501 2.90487,10.25559 3.17301,27.70944 0.57542,37.45494 -3.94505,14.80077 -13.65238,29.906266 -25.24655,39.285946 -7.053785,5.70651 -19.562695,12.07305 -27.975775,14.23856 -8.506961,2.18968 -23.58742,2.70265 -32.013814,1.08896 z M 34.110893,88.964644 c 1.642036,-6.13939 5.088732,-10.56231 10.872277,-13.9517 6.63029,-3.88561 15.9236,-3.88561 22.55389,0 5.783545,3.38939 9.230241,7.81231 10.872275,13.9517 0.95341,3.56468 1.74025,4.73189 3.18985,4.73189 1.67561,0 1.85319,-0.52991 1.37425,-4.10073 -0.8003,-5.96665 -5.45942,-12.87734 -11.267081,-16.71202 l -5.017193,-3.31274 3.747529,-3.93947 c 8.348135,-8.77571 7.166075,-20.99549 -2.763594,-28.56921 -3.379525,-2.57769 -4.527025,-2.86583 -11.412981,-2.86583 -6.885956,0 -8.033456,0.28814 -11.412981,2.86583 -9.929666,7.57372 -11.111726,19.7935 -2.763594,28.56921 l 3.747529,3.93947 -5.017193,3.31274 c -5.76981,3.80969 -10.181815,10.36508 -11.147303,16.56275 -0.584877,3.75445 -0.438157,4.25 1.258329,4.25 1.445003,0 2.233702,-1.17139 3.185991,-4.73189 z m 15.169155,-23.01967 c -13.910603,-6.98893 -8.657927,-28.24097 6.980067,-28.24097 8.577848,0 14.989243,6.45346 14.996262,15.09464 0.0066,8.18149 -6.752389,14.89478 -14.996262,14.89478 -1.925,0 -5.06603,-0.7868 -6.980067,-1.74845 z"
       id="path856" />
  </g>
</svg>
