<?xml version="1.0" encoding="UTF-8" standalone="no"?>
<!-- Created with Inkscape (http://www.inkscape.org/) -->

<svg
   width="138.04634"
   height="138.26585"
   viewBox="0 0 138.04634 138.26585"
   version="1.1"
   id="svg5"
   inkscape:version="1.1.2 (b8e25be833, 2022-02-05)"
   sodipodi:docname="medalla.svg"
   xmlns:inkscape="http://www.inkscape.org/namespaces/inkscape"
   xmlns:sodipodi="http://sodipodi.sourceforge.net/DTD/sodipodi-0.dtd"
   xmlns="http://www.w3.org/2000/svg"
   xmlns:svg="http://www.w3.org/2000/svg">
  <sodipodi:namedview
     id="namedview7"
     pagecolor="#505050"
     bordercolor="#ffffff"
     borderopacity="1"
     inkscape:pageshadow="0"
     inkscape:pageopacity="0"
     inkscape:pagecheckerboard="1"
     inkscape:document-units="px"
     showgrid="false"
     fit-margin-top="0"
     fit-margin-left="0"
     fit-margin-right="0"
     fit-margin-bottom="0"
     inkscape:zoom="1.08125"
     inkscape:cx="-57.803468"
     inkscape:cy="79.537572"
     inkscape:window-width="1366"
     inkscape:window-height="705"
     inkscape:window-x="-8"
     inkscape:window-y="-8"
     inkscape:window-maximized="1"
     inkscape:current-layer="layer1" />
  <defs
     id="defs2" />
  <g
     inkscape:label="Capa 1"
     inkscape:groupmode="layer"
     id="layer1"
     transform="translate(15.762541,3.7716944)">
    <path
       style="fill:#ffffff"
       d="M 37.578834,133.09194 C 25.636814,130.50072 14.918854,124.49182 5.0788636,114.87121 -9.5224064,100.59545 -15.869206,85.240182 -15.761186,64.451361 c 0.1387,-26.689739 15.17108955,-50.133126 39.5986,-61.7549982 10.76853,-5.12334 17.023195,-6.48954 29.610564,-6.467803 20.217265,0.03491 33.260857,5.557597 48.083602,20.3586992 7.85386,7.842393 10.33902,11.101619 13.76896,18.057651 5.64872,11.455795 7.46598,20.568168 6.8779,34.488038 -0.79546,18.828334 -6.37344,31.079592 -20.73047,45.531622 -6.869835,6.9153 -10.130155,9.34703 -16.999995,12.67956 -4.674997,2.26782 -11.738829,4.83555 -15.697402,5.70606 -8.680866,1.90897 -22.48119,1.92746 -31.171739,0.0418 z m 34.869144,-11.11078 c 18.270647,-5.92143 32.898852,-21.43297 38.552372,-40.880398 2.07387,-7.133847 2.32714,-21.639199 0.51454,-29.467814 C 107.66383,35.000309 94.668955,18.874705 79.355908,11.726208 61.843007,3.5507708 44.20278,3.5540698 26.885654,11.736008 c -7.69413,3.6353 -18.5485504,13.343827 -23.8522404,21.334176 -7.89831,11.899309 -11.25025,30.119481 -8.19815,44.562755 7.39951,35.016181 43.2317904,55.490901 77.6127144,44.348211 z M 49.360528,106.61018 C 36.238174,104.38051 30.237304,87.167362 38.965955,76.793952 c 2.931259,-3.483603 3.515168,-2.880598 -10.298501,-10.635298 -5.65429,-3.174197 -10.71679,-6.586432 -11.25,-7.582745 -0.53321,-0.996313 -0.96948,-6.533919 -0.96948,-12.305791 0,-8.206951 0.34252,-10.836825 1.57143,-12.065741 1.36548,-1.365474 5.9235,-1.571429 34.777496,-1.571429 28.435615,0 33.525355,0.223639 35.428565,1.556704 2.06492,1.446324 2.22025,2.314924 2.19071,12.25 -0.0203,6.826716 -0.47229,11.265649 -1.25,12.276177 -0.67001,0.870584 -6.1682,4.420258 -12.218197,7.888165 -6.05,3.467906 -11.135541,6.41615 -11.301202,6.551654 -0.165661,0.135503 1.071839,2.411434 2.75,5.057614 9.031312,14.24091 -2.358061,31.230768 -19.036248,28.396918 z m 9.758959,-11.371098 c 2.224711,-1.91361 2.783036,-3.23892 2.783036,-6.60613 0,-8.24798 -8.715624,-11.89277 -14.531468,-6.07693 -1.994997,1.995 -2.923077,3.92443 -2.923077,6.07693 0,2.1525 0.92808,4.08193 2.923077,6.07692 3.656119,3.65611 7.89139,3.84689 11.748432,0.52921 z m 2.248122,-30.356134 6.058347,-3.75 0.01101,-9.25 0.01101,-9.25 h -14 -14 v 9.350947 9.350948 l 5.75,3.615673 c 3.1625,1.98862 6.731289,3.630694 7.930642,3.649053 1.199353,0.01836 4.906898,-1.654121 8.238989,-3.716621 z m -30.919635,-15.75 c 0,-6.266667 -0.0897,-6.5 -2.5,-6.5 -2.36087,0 -2.5,0.303313 -2.5,5.45031 0,4.135807 0.42207,5.69614 1.75,6.469591 2.97685,1.733855 3.25,1.27833 3.25,-5.419901 z m 50.000004,-1.035184 c 0,-4.798149 -0.24399,-5.464816 -2,-5.464816 -1.79598,0 -2,0.666667 -2,6.535184 0,6.225306 0.0948,6.48443 2,5.464816 1.62544,-0.869908 2,-2.093823 2,-6.535184 z"
       id="path874" />
  </g>
</svg>
