<?xml version="1.0" encoding="UTF-8" standalone="no"?>
<!-- Created with Inkscape (http://www.inkscape.org/) -->

<svg
   width="44"
   height="44"
   viewBox="0 0 44 43.999999"
   version="1.1"
   id="svg5"
   inkscape:version="1.1.2 (b8e25be833, 2022-02-05)"
   sodipodi:docname="microfono.svg"
   xmlns:inkscape="http://www.inkscape.org/namespaces/inkscape"
   xmlns:sodipodi="http://sodipodi.sourceforge.net/DTD/sodipodi-0.dtd"
   xmlns="http://www.w3.org/2000/svg"
   xmlns:svg="http://www.w3.org/2000/svg">
  <sodipodi:namedview
     id="namedview7"
     pagecolor="#505050"
     bordercolor="#ffffff"
     borderopacity="1"
     inkscape:pageshadow="0"
     inkscape:pageopacity="0"
     inkscape:pagecheckerboard="1"
     inkscape:document-units="px"
     showgrid="false"
     fit-margin-top="0"
     fit-margin-left="0"
     fit-margin-right="0"
     fit-margin-bottom="0"
     inkscape:zoom="6.1164737"
     inkscape:cx="4.9865334"
     inkscape:cy="30.082693"
     inkscape:window-width="1366"
     inkscape:window-height="705"
     inkscape:window-x="-8"
     inkscape:window-y="-8"
     inkscape:window-maximized="1"
     inkscape:current-layer="layer1"
     height="44px" />
  <defs
     id="defs2" />
  <g
     inkscape:label="Capa 1"
     inkscape:groupmode="layer"
     id="layer1"
     transform="translate(-59.289951,-40.232062)">
    <path
       d="m 78.963051,81.327379 c 0,-2.474589 -0.432999,-3.390936 -1.602307,-3.390936 -4.50951,0 -13.055896,-7.331496 -11.918372,-10.224149 0.836305,-2.12667 2.311524,-1.700342 5.249229,1.516998 5.492002,6.014766 14.843555,6.196162 20.952794,0.406438 3.858985,-3.657154 4.976201,-4.027426 5.803588,-1.923436 1.137524,2.892653 -7.408862,10.224149 -11.918372,10.224149 -1.169308,0 -1.602307,0.916347 -1.602307,3.390936 0,2.97111 -0.307311,3.390937 -2.482127,3.390937 -2.174815,0 -2.482126,-0.419827 -2.482126,-3.390937 z m -3.656102,-14.43886 c -2.538242,-2.130506 -2.805133,-2.997773 -3.140559,-10.205344 -0.426167,-9.157428 0.843927,-13.076382 4.901502,-15.123888 3.506903,-1.769633 5.247668,-1.769633 8.754571,0 4.057575,2.047506 5.327669,5.96646 4.901502,15.123888 -0.335426,7.207571 -0.602317,8.074838 -3.140559,10.205344 -1.748875,1.467937 -4.017217,2.328372 -6.138229,2.328372 -2.121011,0 -4.389353,-0.860435 -6.138228,-2.328372 z m 8.685626,-2.549917 c 1.66086,-0.867363 1.92043,-2.085203 1.92043,-9.010204 0,-8.439663 -0.818468,-10.332484 -4.467828,-10.332484 -3.648023,0 -4.467827,1.893334 -4.467827,10.318437 0,6.590499 0.304909,8.166518 1.737488,8.980741 2.2223,1.263066 2.931314,1.268918 5.277737,0.0435 z"
       style="fill:#038387;fill-opacity:1;stroke-width:0.980772"
       id="path988" />
    <path
       d="m -39.368262,-21.233624 c -1.81489,-1.771 -1.9857,-3.229461 -1.9857,-16.954683 0,-20.349351 -1.87594,-18.892363 24.32484,-18.892363 26.2007797,0 24.3248397,-1.456988 24.3248397,18.892363 0,20.349349 1.87594,18.892361 -24.3248397,18.892361 -19.02964,0 -20.48259,-0.126027 -22.33914,-1.937678 z M 2.3314677,-38.188307 v -14.048167 h -19.3605897 -19.36059 v 14.048167 14.048166 h 19.36059 19.3605897 z m -33.7569197,4.463432 c 0,-2.3446 2.48398,-3.305805 3.98428,-1.541772 1.45829,1.714642 0.44599,3.375794 -2.05718,3.375794 -1.2289,0 -1.9271,-0.664478 -1.9271,-1.834022 z m 10.10766,-0.345866 c 0.26863,-1.845716 0.92608,-2.179888 4.28867,-2.179888 3.36259,0 4.02004,0.334172 4.28867,2.179888 0.2899,1.991846 -0.08,2.179888 -4.28867,2.179888 -4.20864,0 -4.57857,-0.188042 -4.28867,-2.179888 z m 14.1902997,1.168604 c -0.91159,-1.439288 1.38773,-3.820191 3.07801,-3.187248 2.17626,0.81491 1.7649,4.198532 -0.51041,4.198532 -1.05991,0 -2.21533,-0.455073 -2.5676,-1.011284 z M -31.425452,-43.516922 c 0,-1.595038 0.5146,-2.001127 2.23391,-1.762851 1.22865,0.170274 2.23391,0.963559 2.23391,1.762851 0,0.799292 -1.00526,1.592578 -2.23391,1.762851 -1.71931,0.238277 -2.23391,-0.167813 -2.23391,-1.762851 z m 9.9285,0 c 0,-1.291782 0.6619,-1.937678 1.9857,-1.937678 1.3238,0 1.9857,0.645896 1.9857,1.937678 0,1.291782 -0.6619,1.937678 -1.9857,1.937678 -1.3238,0 -1.9857,-0.645896 -1.9857,-1.937678 z m 9.92851,0 c 0,-1.650621 0.6619,-1.937678 4.4678197,-1.937678 3.80593,0 4.46783,0.287057 4.46783,1.937678 0,1.650611 -0.6619,1.937678 -4.46783,1.937678 -3.8059197,0 -4.4678197,-0.287067 -4.4678197,-1.937678 z"
       style="fill:#ffffff;stroke-width:0.980772"
       id="path1081" />
    <path
       d="m 204.38718,14.888257 -7.6019,-7.4180615 -3.14895,1.272793 c -12.3399,4.9877385 -25.27639,-4.633444 -23.32282,-17.345756 0.52389,-3.4089765 1.62019,-5.3286045 4.83455,-8.4652215 7.18973,-7.015857 16.1035,-6.981958 23.05638,0.08768 5.01682,5.101074 6.11651,9.9211635 3.78943,16.6096505 l -1.58042,4.542422 8.02974,7.8764585 c 4.41636,4.332057 8.02974,8.412323 8.02974,9.067278 0,0.654945 -1.00887,1.190809 -2.24192,1.190809 -1.47022,0 -4.8586,-2.553394 -9.84383,-7.418061 z M 194.74703,2.0746825 c 3.07613,-3.001745 3.85459,-4.478934 3.85459,-7.314406 0,-7.4764825 -4.81515,-12.1763595 -12.47499,-12.1763595 -3.90989,0 -5.10974,0.495426 -7.97773,3.294053 -2.82339,2.755098 -3.36994,3.983595 -3.34051,7.5085025 0.0194,2.317947 0.60795,5.221664 1.308,6.4527 1.9326,3.398455 6.65154,5.983376 10.93604,5.990498 3.14129,0.0048 4.54135,-0.678014 7.6946,-3.754988 z"
       style="fill:#000000;stroke-width:0.980772"
       id="path1136" />
    <path
       style="fill:#000000"
       d="m 147.25184,91.004151 c -2.50449,-1.01019 -4.15018,-6.59768 -2.44535,-8.30252 0.80155,-0.80155 1.10116,-0.2849 1.10116,1.89884 0,3.58948 1.57582,5.4 4.7,5.4 1.265,0 2.3,0.45 2.3,1 0,1.20009 -2.6853,1.20183 -5.65581,0.004 z m 10.65581,-0.004 c 0,-0.55 1.035,-1 2.3,-1 2.93066,0 4.7,-1.76935 4.7,-4.7 0,-1.265 0.50625,-2.3 1.125,-2.3 1.66835,0 0.19485,6.24161 -1.8296,7.75 -2.0042,1.4933 -6.2954,1.66371 -6.2954,0.25 z m -5.00605,-9.5073 c -1.10651,-1.33326 -1.06339,-1.85183 0.26441,-3.17963 2.1445,-2.1445 4.97194,-0.95307 4.56178,1.92224 -0.39071,2.73897 -3.02664,3.42572 -4.82619,1.25739 z m -8.41143,-4.74494 c -1.2793,-2.80832 0.23709,-6.72868 3.01051,-7.78313 3.26778,-1.24241 5.40697,-1.22841 5.40697,0.0354 0,0.55 -1.0699,1 -2.37755,1 -2.92729,0 -4.32421,1.58624 -4.84359,5.5 -0.32105,2.41921 -0.55265,2.66077 -1.19634,1.24776 z m 20.41748,-2.04776 c 0,-2.93065 -1.76934,-4.7 -4.7,-4.7 -1.265,0 -2.3,-0.45 -2.3,-1 0,-1.41371 4.2912,-1.2433 6.2954,0.25 2.02445,1.50839 3.49795,7.75 1.8296,7.75 -0.61875,0 -1.125,-1.035 -1.125,-2.3 z m -15.5,0.3 c -0.33992,-0.55 -0.14147,-1 0.44099,-1 0.58246,0 1.05901,0.45 1.05901,1 0,0.55 -0.19844,1 -0.44098,1 -0.24254,0 -0.7191,-0.45 -1.05902,-1 z"
       id="path1259" />
    <path
       style="fill:#ffffff"
       d="m -66.781194,65.974218 c -5.27414,-1.88414 -7.3758,-5.503853 -7.4934,-12.905918 -0.0902,-5.67772 0.10042,-6.31096 1.89974,-6.31096 1.70769,0 2.07451,0.8366 2.50981,5.7241 0.65762,7.383595 2.38249,9.108465 9.76609,9.766078 4.88749,0.43531 5.7241,0.80213 5.7241,2.50982 0,1.67157 -0.73896,2.03561 -4.5,2.21688 -2.475,0.11929 -6.03285,-0.33071 -7.90634,-1 z m 23.338901,-0.032 c -1.028581,-2.68044 0.474879,-3.68485 5.515671,-3.68485 7.040524,0 9.373372,-2.243033 10.031332,-9.645098 0.445756,-5.01476 0.807424,-5.8549 2.520435,-5.8549 4.480852,0 2.429981,14.006335 -2.5969,17.735428 -3.590155,2.66328 -14.608601,3.69559 -15.470538,1.44942 z M -54.219864,46.4286 c -2.23661,-2.47142 -2.13826,-8.42394 0.17375,-10.51628 2.47142,-2.2366 8.423936,-2.13825 10.516271,0.17376 2.236602,2.47141 2.138252,8.42393 -0.173753,10.51627 -2.471418,2.2366 -8.423938,2.13825 -10.516268,-0.17375 z m -20.28969,-11.66168 c -1.05634,-2.75278 0.48497,-11.83108 2.46102,-14.4954 2.29608,-3.09582 8.28086,-5.20589 13.64497,-4.81087 3.26315,0.24031 4.02871,0.67674 4.02871,2.29669 0,1.70453 -0.81733,2.637702 -5.64913,2.50372 -7.69227,-0.213301 -10.05844,2.602101 -10.05434,9.84943 0.003,4.963379 -0.69299,5.731922 -2.04956,5.96103 -0.96776,0.163443 -2.03591,-0.40357 -2.38167,-1.3046 z m 47.335935,0.85832 c -0.38568,-0.38568 -0.701236,-2.82638 -0.701236,-5.42379 0,-6.92307 -2.280081,-9.26901 -9.6451,-9.92368 -5.014755,-0.44575 -5.8549,-0.80742 -5.8549,-2.52043 0,-4.53277 14.016463,-2.41581 17.804227,2.68904 2.606061,3.51224 3.086513,15.07112 0.647009,15.56595 -0.85182,0.17278 -1.86432,-10e-4 -2.25,-0.38709 z m -36.031465,-4.78609 c -0.46073,-0.872755 -0.25187,-2.164562 0.36024,-2.938707 0.53074,-0.671242 1.55361,-0.94981 2.40735,-0.891597 0.63838,0.04353 1.34623,0.367076 1.69293,0.904865 0.50384,0.781523 0.59792,1.951914 0.1821,2.783613 -0.38697,0.773985 -1.30973,1.375203 -2.17396,1.41882 -0.92528,0.0467 -2.03614,-0.457688 -2.46866,-1.276994 z"
       id="path1983"
       sodipodi:nodetypes="ssssssssssssssssssssssssssscssssscaaaaaaa" />
  </g>
</svg>
