<?xml version="1.0" encoding="UTF-8" standalone="no"?>
<!-- Created with Inkscape (http://www.inkscape.org/) -->

<svg
   width="243.83464"
   height="65.246857"
   viewBox="0 0 243.83464 65.246857"
   version="1.1"
   id="svg5"
   inkscape:version="1.1.2 (b8e25be833, 2022-02-05)"
   sodipodi:docname="netflixLogo.svg"
   xmlns:inkscape="http://www.inkscape.org/namespaces/inkscape"
   xmlns:sodipodi="http://sodipodi.sourceforge.net/DTD/sodipodi-0.dtd"
   xmlns="http://www.w3.org/2000/svg"
   xmlns:svg="http://www.w3.org/2000/svg">
  <sodipodi:namedview
     id="namedview7"
     pagecolor="#505050"
     bordercolor="#ffffff"
     borderopacity="1"
     inkscape:pageshadow="0"
     inkscape:pageopacity="0"
     inkscape:pagecheckerboard="1"
     inkscape:document-units="px"
     showgrid="false"
     fit-margin-top="0"
     fit-margin-left="0"
     fit-margin-right="0"
     fit-margin-bottom="0"
     inkscape:zoom="0.5"
     inkscape:cx="-179"
     inkscape:cy="20"
     inkscape:window-width="1366"
     inkscape:window-height="705"
     inkscape:window-x="-8"
     inkscape:window-y="-8"
     inkscape:window-maximized="1"
     inkscape:current-layer="layer1" />
  <defs
     id="defs2" />
  <g
     inkscape:label="Capa 1"
     inkscape:groupmode="layer"
     id="layer1"
     transform="translate(72.561587,-27.176547)">
    <path
       style="fill:#ff0000"
       d="M -72.54913,59.731338 V 27.176547 l 4.73058,0.304791 4.73057,0.304791 6.71364,18.5 6.71365,18.5 0.0558,-18.75 0.0558,-18.75 h 5 5 V 57.67914 c 0,33.794569 0.48517,31.606989 -7.00994,31.606989 -4.35491,0 -3.52791,1.56163 -11.58189,-21.870256 l -3.90817,-11.370256 -0.27259,17.499772 -0.27258,17.49977 -6.483923,0.707195 c -5.700291,0.621725 -2.392096,1.855077 -3.120335,-2.401067 -0.664945,-3.886229 -0.350572,-12.288647 -0.350572,-29.619949 z m 235.45458,31.846651 c -2.83361,-0.36107 -3.27651,-1.01165 -6.36789,-9.3538 -1.82735,-4.93116 -3.65901,-9.17374 -4.07035,-9.42796 -0.41133,-0.25422 -2.31943,3.23951 -4.2402,7.76384 l -3.49232,8.22606 -4.88412,-0.32554 c -2.68627,-0.17905 -5.00431,-0.44573 -5.1512,-0.59263 -0.1469,-0.1469 2.61693,-6.87236 6.14185,-14.94547 l 6.40893,-14.678387 -5.49986,-14.228986 c -3.02493,-7.825943 -5.72791,-14.791487 -6.00663,-15.478987 -0.36803,-0.907796 0.95978,-1.248817 4.85022,-1.245678 l 5.35699,0.0043 2.98438,8.081517 c 1.64141,4.444835 3.27668,8.26217 3.63394,8.482967 0.35726,0.220797 2.24368,-3.305331 4.19204,-7.835839 l 3.54248,-8.237267 5.48468,-0.297251 5.48467,-0.297251 -6.41109,14.683338 c -3.52611,8.075836 -6.4111,15.50282 -6.4111,16.504409 0,1.001589 2.69665,8.702849 5.99257,17.113915 3.29591,8.41106 5.99591,15.63034 6,16.04284 0.007,0.75277 -1.87684,0.76324 -7.53799,0.0419 z M -29.54913,57.392291 V 27.286129 h 14 13.9999996 v 5 5 h -8.9999996 -9 v 7 7 h 7 6.9999996 v 5 5 h -6.9999996 -7 v 7.989095 7.989095 l 9,-0.63884 8.9999996,-0.63884 v 4.55591 4.5559 l -4.75,0.56002 c -2.6125,0.308 -8.9124996,0.848 -13.9999996,1.2 l -9.25,0.63998 z m 147.25,29.231558 c -0.96024,-0.38747 -1.25,-7.32339 -1.25,-29.921053 V 27.286129 h 4.5 4.5 v 30 30 l -3.25,-0.079 c -1.7875,-0.0434 -3.8125,-0.30592 -4.5,-0.58333 z m -22.75,-1.38089 c -6.05,-0.38631 -12.012499,-0.75964 -13.249999,-0.82961 l -2.25,-0.12722 v -28.5 -28.5 h 5 4.999999 v 23.860709 23.860711 l 5.25,0.6306 c 2.8875,0.34683 6.9375,0.63451 9,0.63929 l 3.75,0.0087 v 5 c 0,2.75 -0.3375,4.92332 -0.75,4.82961 -0.4125,-0.0937 -5.7,-0.48647 -11.75,-0.87278 z m -78.5,-24.45683 v -23.5 h -5 -5.0000004 v -5 -5 H 21.95087 37.450871 v 5 5 h -5.5 -5.500001 v 23.5 23.5 h -5 -5 z m 28.000001,-5 v -28.5 h 14 14 v 5 5 h -9 -9 v 7 7 h 7 7 v 4.5 4.5 h -7 -7 v 12 12 h -5 -5 z"
       id="path836"
       sodipodi:nodetypes="ccccccccccssscccssccsssscssscssscssscccssscsscccccccccccccccccccccccccccsccccccccsscccccccsscsssscccccccccccccccccccccccccccccccccccccc" />
  </g>
</svg>
